HIERARCHY
ROOT Hips
{
	OFFSET 0.000000 0.000000 0.000000
	CHANNELS 6 Xposition Yposition Zposition Zrotation Yrotation Xrotation 
	JOINT LHipJoint
	{
		OFFSET 0.000000 0.000000 0.000000
		CHANNELS 3 Zrotation Yrotation Xrotation
		JOINT LeftUpLeg
		{
			OFFSET 1.363060 -1.794630 0.839290
			CHANNELS 3 Zrotation Yrotation Xrotation
			JOINT LeftLeg
			{
				OFFSET 2.448110 -6.726130 0.000000
				CHANNELS 3 Zrotation Yrotation Xrotation
				JOINT LeftFoot
				{
					OFFSET 2.562200 -7.039590 0.000000
					CHANNELS 3 Zrotation Yrotation Xrotation
					JOINT LeftToeBase
					{
						OFFSET 0.157640 -0.433110 2.322550
						CHANNELS 3 Zrotation Yrotation Xrotation
						End Site
						{
							OFFSET 0.000000 0.000000 0.000000
						}
					}
				}
			}
		}
	}
	JOINT RHipJoint
	{
		OFFSET 0.000000 0.000000 0.000000
		CHANNELS 3 Zrotation Yrotation Xrotation
		JOINT RightUpLeg
		{
			OFFSET -1.305520 -1.794630 0.839290
			CHANNELS 3 Zrotation Yrotation Xrotation
			JOINT RightLeg
			{
				OFFSET -2.542530 -6.985550 0.000000
				CHANNELS 3 Zrotation Yrotation Xrotation
				JOINT RightFoot
				{
					OFFSET -2.568260 -7.056230 0.000000
					CHANNELS 3 Zrotation Yrotation Xrotation
					JOINT RightToeBase
					{
						OFFSET -0.164730 -0.452590 2.363150
						CHANNELS 3 Zrotation Yrotation Xrotation
						End Site
						{
							OFFSET 0.000000 0.000000 0.000000
						}
					}
				}
			}
		}
	}
	JOINT LowerBack
	{
		OFFSET 0.000000 0.000000 0.000000
		CHANNELS 3 Zrotation Yrotation Xrotation
		JOINT Spine
		{
			OFFSET 0.028270 2.035590 -0.193380
			CHANNELS 3 Zrotation Yrotation Xrotation
			JOINT Spine1
			{
				OFFSET 0.056720 2.048850 -0.042750
				CHANNELS 3 Zrotation Yrotation Xrotation
				JOINT Neck
				{
					OFFSET 0.000000 0.000000 0.000000
					CHANNELS 3 Zrotation Yrotation Xrotation
					JOINT Neck1
					{
						OFFSET -0.054170 1.746240 0.172020
						CHANNELS 3 Zrotation Yrotation Xrotation
						JOINT Head
						{
							OFFSET 0.104070 1.761360 -0.123970
							CHANNELS 3 Zrotation Yrotation Xrotation
							End Site
							{
								OFFSET 0.000000 0.000000 0.000000
							}
						}
					}
				}
				JOINT LeftShoulder
				{
					OFFSET 0.000000 0.000000 0.000000
					CHANNELS 3 Zrotation Yrotation Xrotation
					JOINT LeftArm
					{
						OFFSET 3.362410 1.200890 -0.311210
						CHANNELS 3 Zrotation Yrotation Xrotation
						JOINT LeftForeArm
						{
							OFFSET 4.983000 -0.000000 -0.000000
							CHANNELS 3 Zrotation Yrotation Xrotation
							JOINT LeftHand
							{
								OFFSET 3.483560 -0.000000 -0.000000
								CHANNELS 3 Zrotation Yrotation Xrotation
								JOINT LeftFingerBase
								{
									OFFSET 0.000000 0.000000 0.000000
									CHANNELS 3 Zrotation Yrotation Xrotation
									JOINT LeftHandIndex1
									{
										OFFSET 0.715260 -0.000000 -0.000000
										CHANNELS 3 Zrotation Yrotation Xrotation
										End Site
										{
											OFFSET 0.000000 0.000000 0.000000
										}
									}
								}
								JOINT LThumb
								{
									OFFSET 0.000000 0.000000 0.000000
									CHANNELS 3 Zrotation Yrotation Xrotation
									End Site
									{
										OFFSET 0.000000 0.000000 0.000000
									}
								}
							}
						}
					}
				}
				JOINT RightShoulder
				{
					OFFSET 0.000000 0.000000 0.000000
					CHANNELS 3 Zrotation Yrotation Xrotation
					JOINT RightArm
					{
						OFFSET -3.136600 1.374050 -0.404650
						CHANNELS 3 Zrotation Yrotation Xrotation
						JOINT RightForeArm
						{
							OFFSET -5.241900 -0.000000 -0.000000
							CHANNELS 3 Zrotation Yrotation Xrotation
							JOINT RightHand
							{
								OFFSET -3.444170 -0.000000 -0.000000
								CHANNELS 3 Zrotation Yrotation Xrotation
								JOINT RightFingerBase
								{
									OFFSET 0.000000 0.000000 0.000000
									CHANNELS 3 Zrotation Yrotation Xrotation
									JOINT RightHandIndex1
									{
										OFFSET -0.622530 -0.000000 -0.000000
										CHANNELS 3 Zrotation Yrotation Xrotation
										End Site
										{
											OFFSET 0.000000 0.000000 0.000000
										}
									}
								}
								JOINT RThumb
								{
									OFFSET 0.000000 0.000000 0.000000
									CHANNELS 3 Zrotation Yrotation Xrotation
									End Site
									{
										OFFSET 0.000000 0.000000 0.000000
									}
								}
							}
						}
					}
				}
			}
		}
	}
}
MOTION
Frames: 9
Frame Time: 0.008333
24.312417 16.469194 2.330589 175.605562 -85.357514 -147.526578 -9.084954 0.446679 6.176837 -9.892891 -8.769367 -60.030129 -1.834761 1.359857 36.205088 1.420460 4.270296 -10.012728 0.086400 0.000000 -16.601800 10.752336 -5.085182 1.245400 4.964104 -7.927308 -7.470012 0.867546 -1.460389 21.858367 -0.083728 7.211173 25.699951 3.904800 -0.000000 -89.641700 -8.191765 0.252560 -8.421215 -2.538983 0.651145 -4.180409 -5.745976 0.580883 2.049510 12.050522 -7.946476 -10.391989 -2.014012 -0.107936 -0.871960 0.000000 0.000000 0.000000 0.321539 19.571338 3.794162 -41.636346 8.818178 -36.762618 -2.310490 -45.245602 -0.032591 14.947021 0.939456 0.109770 -0.199316 0.118777 0.000000 0.000000 0.000000 0.000000 0.000000 0.000000 0.000000 10.451796 -1.466561 0.022745 48.659761 33.470470 15.461516 -179.980828 86.684136 179.961060 -5.882258 8.300045 -0.466498 0.126898 -0.602314 -0.000000 0.000000 0.000000 0.000000 0.000000 0.000000 0.000000 
24.106225 16.434508 2.334608 173.486460 -85.525494 -145.540034 -9.059406 0.456485 6.082392 -10.511982 -8.482031 -59.974062 -1.810671 1.491912 38.026142 1.401601 4.009029 -10.815396 -0.025300 0.000000 -16.398400 10.953503 -5.154329 1.285063 4.534738 -8.693267 -8.200746 0.734233 -1.562443 23.796763 -0.210116 7.533142 27.002772 4.293400 0.000000 -87.843200 -8.542918 0.129266 -8.499665 -2.604750 0.562980 -4.184982 -5.749284 0.491922 2.079156 12.402570 -8.015981 -10.376615 -1.976610 -0.105056 -0.867859 0.000000 0.000000 0.000000 0.191467 19.589393 3.764932 -41.720653 8.779673 -36.473420 -2.353161 -44.561646 -0.031539 15.137817 0.858907 0.100854 -0.195191 0.114465 0.000000 0.000000 0.000000 0.000000 0.000000 0.000000 0.000000 10.613936 -1.602070 0.047977 48.771049 33.322771 16.105559 -179.993714 86.356479 179.963848 -5.594340 8.518446 -0.455068 0.125165 -0.607374 -0.000000 0.000000 0.000000 0.000000 0.000000 0.000000 0.000000 
23.903230 16.404489 2.338589 170.914859 -85.739824 -143.096725 -8.996526 0.471185 5.988219 -11.148833 -8.235256 -59.780895 -1.808149 1.586110 39.633903 1.398866 3.757841 -11.826717 -0.154000 -0.000001 -16.421100 11.179588 -5.198685 1.319385 4.117519 -9.427177 -9.002919 0.604418 -1.658877 25.829406 -0.354181 7.658859 28.265522 4.580000 -0.000000 -85.490899 -8.863785 -0.004887 -8.555346 -2.662943 0.463401 -4.184138 -5.747576 0.392569 2.106004 12.718513 -8.084806 -10.356940 -1.943256 -0.102510 -0.863239 0.000000 0.000000 0.000000 0.033797 19.573673 3.730777 -41.857936 8.619016 -36.185842 -2.393047 -43.810197 -0.030591 15.419914 0.770783 0.091132 -0.189866 0.110083 0.000000 0.000000 0.000000 0.000000 0.000000 0.000000 0.000000 10.759043 -1.752999 0.072227 48.921623 33.149760 16.755327 179.993884 86.112100 179.967145 -5.244820 8.714474 -0.436253 0.121891 -0.611078 -0.000000 0.000000 0.000000 0.000000 0.000000 0.000000 0.000000 
23.703345 16.379996 2.343326 168.089870 -85.976923 -140.404135 -8.902402 0.497842 5.895718 -11.772860 -8.025240 -59.430465 -1.824701 1.643984 40.992930 1.412852 3.527818 -12.991363 -0.293400 -0.000000 -16.663100 11.419473 -5.213052 1.345192 3.731106 -10.100509 -9.838840 0.479826 -1.748035 27.914321 -0.511327 7.524752 29.435092 4.708000 0.000000 -82.674100 -9.135246 -0.138618 -8.583894 -2.709891 0.361350 -4.177784 -5.740721 0.291618 2.129147 12.993525 -8.155099 -10.332599 -1.914062 -0.100330 -0.857710 0.000000 0.000000 0.000000 -0.160911 19.521676 3.691347 -42.061665 8.348194 -35.902106 -2.428865 -43.015777 -0.029753 15.781641 0.691953 0.082805 -0.183314 0.105590 0.000000 0.000000 0.000000 0.000000 0.000000 0.000000 0.000000 10.883411 -1.915220 0.096696 49.101616 32.950740 17.401813 179.982125 85.959487 179.970905 -4.834403 8.876499 -0.409453 0.117075 -0.613059 -0.000000 0.000000 0.000000 0.000000 0.000000 0.000000 0.000000 
23.506313 16.361592 2.349149 165.040527 -86.220422 -137.499583 -8.778809 0.540885 5.806055 -12.371364 -7.860338 -58.901078 -1.857280 1.666129 42.075024 1.444263 3.337076 -14.241525 -0.438300 -0.000000 -17.089700 11.670313 -5.194683 1.357477 3.370368 -10.709745 -10.681822 0.361807 -1.831076 30.021295 -0.676761 7.092712 30.441387 4.633700 0.000001 -79.525600 -9.356269 -0.265922 -8.580341 -2.745559 0.262349 -4.164701 -5.728135 0.194542 2.151021 13.229237 -8.228431 -10.305227 -1.888725 -0.098465 -0.851667 0.000000 0.000000 0.000000 -0.383576 19.446715 3.646603 -42.352487 7.948683 -35.628504 -2.459805 -42.183704 -0.029059 16.203259 0.627761 0.076272 -0.175577 0.101229 0.000000 0.000000 0.000000 0.000000 0.000000 0.000000 0.000000 10.989261 -2.087174 0.120354 49.302588 32.723129 18.032422 179.971908 85.904506 179.975060 -4.366204 8.996699 -0.374772 0.110695 -0.613044 -0.000000 0.000000 0.000000 0.000000 0.000000 0.000000 0.000000 
23.312401 16.349667 2.356589 161.908403 -86.450642 -134.532692 -8.635929 0.602560 5.720973 -12.925528 -7.739399 -58.187701 -1.901240 1.656530 42.870766 1.491914 3.199007 -15.508705 -0.584700 -0.000000 -17.640200 11.919954 -5.143063 1.353654 3.039664 -11.241079 -11.506112 0.249599 -1.909096 32.118160 -0.845777 6.329410 31.212517 4.319199 0.000000 -76.217600 -9.523499 -0.379606 -8.544515 -2.769387 0.172682 -4.145282 -5.709931 0.107304 2.172014 13.427329 -8.305495 -10.274985 -1.867203 -0.096921 -0.844946 0.000000 0.000000 0.000000 -0.634206 19.353590 3.596784 -42.741484 7.425897 -35.360063 -2.485565 -41.335223 -0.028518 16.661402 0.588716 0.073235 -0.166824 0.097103 0.000000 0.000000 0.000000 0.000000 0.000000 0.000000 0.000000 11.078974 -2.264620 0.143368 49.511366 32.464426 18.633883 179.963991 85.950685 179.979500 -3.849349 9.070841 -0.333109 0.102913 -0.610875 -0.000000 0.000000 0.000000 0.000000 0.000000 0.000000 0.000000 
23.121025 16.344394 2.366440 158.950377 -86.652382 -131.759833 -8.493695 0.679825 5.643657 -13.408694 -7.653875 -57.305431 -1.950636 1.621330 43.388660 1.552475 3.120782 -16.729834 -0.729400 -0.000000 -18.234799 12.146575 -5.062621 1.335027 2.756401 -11.671272 -12.294384 0.141464 -1.983158 34.174923 -1.014559 5.214469 31.681747 3.742400 0.000000 -72.929400 -9.630576 -0.473142 -8.483627 -2.779906 0.097668 -4.121487 -5.686184 0.034657 2.192247 13.588713 -8.386653 -10.241481 -1.849390 -0.095722 -0.837083 0.000000 0.000000 0.000000 -0.918293 19.244444 3.542061 -43.233965 6.797058 -35.083298 -2.506616 -40.498946 -0.028117 17.129855 0.585159 0.075194 -0.157368 0.093253 0.000000 0.000000 0.000000 0.000000 0.000000 0.000000 0.000000 11.153187 -2.443138 0.166064 49.712196 32.171654 19.194413 179.958905 86.097995 179.984101 -3.298695 9.099074 -0.286357 0.094056 -0.606508 -0.000000 0.000000 0.000000 0.000000 0.000000 0.000000 0.000000 
22.931989 16.345723 2.378695 156.186423 -86.821929 -129.200180 -8.358236 0.768461 5.575760 -13.818936 -7.611668 -56.262692 -2.000578 1.563390 43.638636 1.623484 3.115753 -17.848639 -0.870900 -0.000000 -18.781800 12.346427 -4.958370 1.302162 2.511966 -12.000968 -13.042567 0.036610 -2.056320 36.174394 -1.180632 3.773732 31.786863 2.921700 0.000001 -69.806500 -9.687508 -0.547331 -8.402243 -2.779241 0.037238 -4.094059 -5.657317 -0.023691 2.213039 13.721033 -8.471788 -10.205327 -1.834948 -0.094836 -0.828223 0.000000 0.000000 0.000000 -1.224806 19.126831 3.483309 -43.835455 6.062225 -34.783877 -2.523620 -39.689931 -0.027872 17.583039 0.618102 0.082853 -0.147592 0.089889 0.000000 0.000000 0.000000 0.000000 0.000000 0.000000 0.000000 11.218801 -2.621361 0.187241 49.895470 31.838969 19.699218 179.957684 86.342697 179.988644 -2.731377 9.085100 -0.236920 0.084466 -0.600060 -0.000000 0.000000 0.000000 0.000000 0.000000 0.000000 0.000000 
22.744547 16.353468 2.393612 153.749687 -86.959180 -126.980074 -8.241911 0.861708 5.519632 -14.146035 -7.610024 -55.086226 -2.046160 1.487379 43.646031 1.700958 3.186891 -18.825594 -1.008000 -0.000000 -19.201200 12.508708 -4.838176 1.259481 2.315601 -12.219117 -13.753879 -0.065698 -2.130668 38.101549 -1.342044 2.052068 31.482881 1.900100 -0.000000 -66.940400 -9.695308 -0.602433 -8.310715 -2.767553 -0.009004 -4.065274 -5.623992 -0.068495 2.234264 13.829755 -8.559753 -10.165893 -1.823581 -0.094270 -0.817998 0.000000 0.000000 0.000000 -1.550381 19.001805 3.421258 -44.545240 5.239068 -34.437233 -2.537707 -38.932959 -0.027776 17.998180 0.690815 0.096712 -0.137969 0.087083 0.000000 0.000000 0.000000 0.000000 0.000000 0.000000 0.000000 11.279210 -2.796289 0.206135 50.050172 31.459750 20.135219 179.960951 86.677624 179.993006 -2.168994 9.036389 -0.187287 0.074625 -0.591763 -0.000000 0.000000 0.000000 0.000000 0.000000 0.000000 0.000000 
